<svg width="245" height="162" viewBox="0 0 245 162" fill="none" xmlns="http://www.w3.org/2000/svg">
<g clip-path="url(#clip0_15_3)">
<path d="M19.7513 75.0232H233.397L233.122 131.22L189.05 135.703L71.3642 133.858L31.0273 126.738L26.948 127.265L19.6132 125.156L19.7505 75.0248L19.7513 75.0232Z" fill="black" fill-opacity="0.99608"/>
<path d="M68.046 117.646C68.046 137.728 59.5678 154.007 49.1092 154.007C38.6509 154.007 30.1724 137.728 30.1724 117.646C30.1724 97.5643 38.6507 81.2845 49.1092 81.2845C59.5676 81.2845 68.046 97.5638 68.046 117.646Z" fill="#1A1A1A" fill-opacity="0.99608"/>
<path d="M63.865 117.645C63.865 133.299 57.2564 145.988 49.104 145.988C40.9519 145.988 34.343 133.299 34.343 117.645C34.343 101.992 40.9517 89.3021 49.104 89.3021C57.2562 89.3021 63.865 101.992 63.865 117.645Z" fill="#800000" fill-opacity="0.99608"/>
<path d="M49.0981 92.6406C41.9111 92.6406 36.0806 103.836 36.0806 117.636C36.0806 131.436 41.9114 142.615 49.0981 142.615C56.285 142.615 62.1071 131.436 62.1071 117.636C62.1071 103.836 56.285 92.6406 49.0981 92.6406ZM51.041 109.623C51.5505 109.623 51.9617 110.413 51.9617 111.391C51.9617 112.37 51.5505 113.159 51.041 113.159C50.5314 113.159 50.1118 112.37 50.1118 111.391C50.1118 110.413 50.5314 109.623 51.041 109.623ZM46.8594 109.802C47.3689 109.802 47.7802 110.591 47.7802 111.57C47.7802 112.548 47.3689 113.354 46.8594 113.354C46.3499 113.354 45.9387 112.548 45.9387 111.57C45.9387 110.591 46.3499 109.802 46.8594 109.802ZM49.098 113.905C50.1706 113.905 51.0409 115.576 51.0409 117.636C51.0409 119.696 50.1706 121.367 49.098 121.367C48.0253 121.367 47.1551 119.696 47.1551 117.636C47.1551 115.576 48.0253 113.905 49.098 113.905ZM52.7389 117.263C53.2484 117.263 53.6597 118.053 53.6597 119.031C53.6597 120.009 53.2484 120.799 52.7389 120.799C52.2294 120.799 51.8181 120.009 51.8181 119.031C51.8181 118.053 52.2294 117.263 52.7389 117.263ZM45.9404 118.01C46.4499 118.01 46.8611 118.8 46.8611 119.778C46.8611 120.757 46.4499 121.546 45.9404 121.546C45.4309 121.546 45.0196 120.757 45.0196 119.778C45.0196 118.8 45.4309 118.01 45.9404 118.01ZM49.2434 122.487C49.7529 122.487 50.1642 123.277 50.1642 124.255C50.1642 125.234 49.7529 126.023 49.2434 126.023C48.7339 126.023 48.3227 125.234 48.3227 124.255C48.3227 123.277 48.7339 122.487 49.2434 122.487Z" fill="#999999" fill-opacity="0.99608"/>
<path d="M98.9355 0C68.1815 0.169666 62.6291 8.71481 42.904 24.2655C38.9168 27.3997 33.185 32.6471 30.2583 35.3762L29.9795 35.36L4.79778 39.9666C4.79778 39.9666 3.95998 53.3995 3.7334 60.1119C3.50681 66.8247 3.43773 80.2411 3.43773 80.2411L0.236084 83.2256L2.32262 102.625L1.62146 105.983L4.40898 119.024L26.7946 127.004C26.7932 126.797 26.7861 126.595 26.7861 126.388C26.7861 100.539 36.7463 79.5758 49.0282 79.5758C61.31 79.5758 71.2618 100.539 71.2618 126.388C71.2618 128.615 71.1851 130.796 71.0422 132.941L72.2924 133.103C72.2924 133.103 125.794 133.07 157.697 134.92C166.958 135.456 178.009 135.146 189.029 134.433C188.4 128.489 188.32 122.153 188.903 115.715C191.206 90.2474 202.887 72.8806 214.988 76.9162C227.029 80.9318 234.953 104.63 232.762 129.958C238.884 129.138 242.721 128.546 242.721 128.546C242.721 128.546 241.895 124.643 241.986 116.446C242.077 108.25 245.026 103.588 245.002 95.9119C244.977 88.2258 239.908 87.3315 239.908 87.3315L240.39 72.4089C240.39 72.4089 239.282 65.5626 229.889 61.2006C220.496 56.8388 184.038 46.2458 184.038 46.2458L178.091 45.824C172.383 39.4247 161.824 27.5665 158.409 24.2675C145.622 10.0393 139.043 1.15634 98.9386 0.00198001L98.9355 0Z" fill="#88AA00" fill-opacity="0.99608"/>
<g filter="url(#filter0_f_15_3)">
<path d="M237.863 149.236C237.863 152.325 188.297 154.83 127.157 154.83C66.0162 154.83 16.4507 152.326 16.4507 149.236C16.4507 146.147 66.0162 143.642 127.157 143.642C188.297 143.642 237.863 146.146 237.863 149.236Z" fill="black" fill-opacity="0.99608"/>
</g>
<path d="M110.094 4.62473C84.7163 1.79758 62.0723 17.2677 47.4995 34.8754L51.115 48.8248L168.322 52.1986C158.564 29.2774 137.071 7.62794 110.096 4.62265L110.094 4.62473Z" fill="#4D4D4D" fill-opacity="0.99608"/>
<path opacity="0.4" d="M91.7378 5.66122L91.2446 5.78976L95.9054 49.2134L96.3985 49.0848L91.7378 5.66122Z" fill="#88AA00" fill-opacity="0.99608"/>
<path opacity="0.4" d="M32.6195 63.464H25.3334C24.2883 63.464 23.4412 65.0907 23.4412 67.0973V74.7481C23.4412 76.7547 24.2883 78.3814 25.3334 78.3814H32.6195C33.6646 78.3814 34.5118 76.7547 34.5118 74.7481V67.0973C34.5118 65.0907 33.6646 63.464 32.6195 63.464Z" fill="#88AA00" fill-opacity="0.99608"/>
<path d="M238.655 71.2237C236.32 71.3467 232.437 73.0852 231.829 75.9114C231.01 79.723 236.265 87.9823 237.979 87.8655C239.637 87.7527 239.785 83.1331 240.108 80.6311L240.386 71.7912C240.357 71.7407 240.327 71.7052 240.294 71.6614C240.038 71.3244 239.433 71.1828 238.655 71.2237Z" fill="#CCCCCC" fill-opacity="0.99608"/>
<path d="M4.51754 44.607C4.25173 49.128 3.87613 55.8418 3.73194 60.1135C3.56664 65.0104 3.48515 73.3778 3.45319 77.5992C6.98705 76.9623 10.0527 75.603 10.9207 73.8361C12.6871 70.2405 8.36562 53.6597 4.51743 44.6075L4.51754 44.607Z" fill="#CCCCCC" fill-opacity="0.99608"/>
<path d="M3.69822 61.1854C3.55453 66.1563 3.48307 73.6648 3.45325 77.6003C6.98711 76.9634 10.0528 75.6041 10.9208 73.8372C11.808 72.0312 11.1588 66.9437 9.80572 61.1854H3.69822Z" fill="#AA0000" fill-opacity="0.99608"/>
<path opacity="0.4" d="M168.342 52.7716C174.067 64.077 173.77 73.8444 173.77 90.5038C173.77 106.05 171.914 120.709 168.632 133.605" stroke="black" stroke-width="3"/>
<path opacity="0.4" d="M106.832 133.214C105.746 130.836 104.708 128.334 103.724 125.712C94.9108 102.232 90.8909 68.8034 95.9029 49.7232" stroke="black" stroke-width="3"/>
<path d="M29.5422 35.6482C29.5422 35.6482 38.3192 27.4753 42.4748 23.9328C46.7477 20.29 64.8104 7.52359 64.8104 7.52359L65.0046 8.26947C65.0046 8.26947 49.2318 21.7564 46.3591 24.1513C43.5713 26.4755 31.4041 38.477 31.4041 38.477L29.5422 35.6482Z" fill="#4D4D4D"/>
<path d="M181.334 46.1434C181.334 46.1434 169.145 33.5575 161.523 25.4453C148.454 11.5353 137.255 6.59348 137.255 6.59348L136.284 9.01753C136.284 9.01753 153.376 24.1213 157.746 29.9019C162.116 35.6826 172.507 50.6 172.507 50.6C172.507 50.6 173.983 51.0359 176.876 49.8541C179.969 48.5913 181.14 46.1434 181.334 46.1434Z" fill="#4D4D4D"/>
<path d="M8.77911 57.1264C8.77911 57.1264 72.0633 59.1154 103.609 60.8558C135.155 62.5961 198.05 67.5686 198.05 67.5686" stroke="black"/>
<path d="M63.0562 86.5201C86.2365 87.9131 116.652 89.197 121.134 89.197C127.349 89.197 191.249 92.1805 191.249 92.1805" stroke="black"/>
<path d="M3.43677 80.9922C3.43677 80.9922 30.4337 83.6028 38.5916 84.7216" stroke="black"/>
<path d="M0.135132 85.0979C0.135132 85.0979 8.09545 87.091 14.3133 87.7084C19.9416 88.2674 30.8222 88.8273 30.8222 88.8273" stroke="#666666"/>
<path d="M66.9488 89.9458C66.9488 89.9458 98.6057 91.4814 105.599 91.8105C113.562 92.1853 191.057 94.421 191.057 94.421" stroke="black"/>
<path d="M230.376 116.591C230.376 136.673 221.898 152.952 211.44 152.952C200.981 152.952 192.503 136.673 192.503 116.591C192.503 96.5095 200.981 80.2297 211.44 80.2297C221.898 80.2297 230.376 96.509 230.376 116.591Z" fill="#1A1A1A" fill-opacity="0.99608"/>
<path d="M226.195 116.59C226.195 132.244 219.587 144.933 211.434 144.933C203.282 144.933 196.673 132.244 196.673 116.59C196.673 100.937 203.282 88.2473 211.434 88.2473C219.586 88.2473 226.195 100.937 226.195 116.59Z" fill="#800000" fill-opacity="0.99608"/>
<path d="M211.428 91.5857C204.241 91.5857 198.411 102.782 198.411 116.581C198.411 130.381 204.242 141.56 211.428 141.56C218.615 141.56 224.437 130.381 224.437 116.581C224.437 102.781 218.615 91.5857 211.428 91.5857ZM213.371 108.568C213.881 108.568 214.292 109.358 214.292 110.336C214.292 111.315 213.881 112.104 213.371 112.104C212.862 112.104 212.442 111.315 212.442 110.336C212.442 109.358 212.862 108.568 213.371 108.568ZM209.19 108.747C209.699 108.747 210.11 109.537 210.11 110.515C210.11 111.493 209.699 112.299 209.19 112.299C208.68 112.299 208.269 111.493 208.269 110.515C208.269 109.536 208.68 108.747 209.19 108.747ZM211.428 112.851C212.501 112.851 213.371 114.522 213.371 116.581C213.371 118.641 212.501 120.312 211.428 120.312C210.356 120.312 209.485 118.641 209.485 116.581C209.485 114.522 210.356 112.851 211.428 112.851ZM215.069 116.208C215.579 116.208 215.99 116.998 215.99 117.976C215.99 118.955 215.579 119.744 215.069 119.744C214.56 119.744 214.148 118.954 214.148 117.976C214.148 116.998 214.56 116.208 215.069 116.208ZM208.271 116.956C208.78 116.956 209.191 117.745 209.191 118.724C209.191 119.702 208.78 120.492 208.271 120.492C207.761 120.492 207.35 119.702 207.35 118.724C207.35 117.745 207.761 116.956 208.271 116.956ZM211.574 121.432C212.083 121.432 212.494 122.222 212.494 123.2C212.494 124.179 212.083 124.968 211.574 124.968C211.064 124.968 210.653 124.179 210.653 123.2C210.653 122.222 211.064 121.432 211.574 121.432Z" fill="#999999" fill-opacity="0.99608"/>
<path d="M106.611 60.8669C106.611 63.3386 104.741 65.3423 102.435 65.3423C100.129 65.3423 98.2596 63.3386 98.2596 60.8669C98.2596 58.3952 100.129 56.3915 102.435 56.3915C104.742 56.3915 106.611 58.3953 106.611 60.8669Z" fill="url(#paint0_linear_15_3)"/>
<path d="M107.673 58.6628H97.1136C96.5165 58.6628 96.0323 59.5923 96.0323 60.739V60.8753C96.0323 62.022 96.5165 62.9515 97.1136 62.9515H107.673C108.27 62.9515 108.754 62.022 108.754 60.8753V60.739C108.754 59.5923 108.27 58.6628 107.673 58.6628Z" fill="#668000" fill-opacity="0.99608"/>
</g>
<defs>
<filter id="filter0_f_15_3" x="8.04428" y="135.236" width="238.225" height="28.0009" filterUnits="userSpaceOnUse" color-interpolation-filters="sRGB">
<feFlood flood-opacity="0" result="BackgroundImageFix"/>
<feBlend mode="normal" in="SourceGraphic" in2="BackgroundImageFix" result="shape"/>
<feGaussianBlur stdDeviation="4.2032" result="effect1_foregroundBlur_15_3"/>
</filter>
<linearGradient id="paint0_linear_15_3" x1="102.103" y1="57.3254" x2="102.103" y2="65.3695" gradientUnits="userSpaceOnUse">
<stop stop-color="#666666"/>
<stop offset="1" stop-color="#88AA00"/>
</linearGradient>
<clipPath id="clip0_15_3">
<rect width="245" height="162" fill="white"/>
</clipPath>
</defs>
</svg>
